PathFileType	3	(X/Y/Z)	D:\Vicon Database\Healthy Subjects\S0040\Jan. 30, 2020\Force Plate Walk 1.trc
DataRate	CameraRate	NumFrames	NumMarkers	Units	OrigDataRate	OrigDataStartFrame	OrigNumFrames
100.0	100.0	8	53	mm	100.0	303	322	
Frame#	Time	right_foot_cluster2			right_foot_cluster3			sternum_cluster1			sternum_cluster2			sternum_cluster3			left_asis			right_asis			left_psis			right_psis			sacrum_cluster1			sacrum_cluster2			sacrum_cluster3			left_lat_femoral_epicondyle			left_anterior_thigh15			left_anterior_thigh25			left_anterior_thigh50			left_lateral_thigh25			left_lateral_thigh50			left_thigh_cluster1			left_thigh_cluster2			left_thigh_cluster3			left_fibular_head			left_tibial_tuberosity			left_anterior_shank30			left_lateral_malleolus			left_shank_cluster1			left_shank_cluster2			left_shank_cluster3			left_heel			left_metatarsal2			left_foot_cluster1			left_foot_cluster2			left_foot_cluster3			right_lat_femoral_epicondyle			right_anterior_thigh15			right_anterior_thigh25			right_anterior_thigh50			right_lateral_thigh25			right_lateral_thigh50			right_thigh_cluster1			right_thigh_cluster2			right_thigh_cluster3			right_fibular_head			right_tibial_tuberosity			right_lateral_distal_shank			right_anterior_shank30			right_lateral_malleolus			right_shank_cluster1			right_shank_cluster2			right_shank_cluster3			right_heel			right_metatarsal2			right_foot_cluster1			
		X1	Y1	Z1	X2	Y2	Z2	X3	Y3	Z3	X4	Y4	Z4	X5	Y5	Z5	X6	Y6	Z6	X7	Y7	Z7	X8	Y8	Z8	X9	Y9	Z9	X10	Y10	Z10	X11	Y11	Z11	X12	Y12	Z12	X13	Y13	Z13	X14	Y14	Z14	X15	Y15	Z15	X16	Y16	Z16	X17	Y17	Z17	X18	Y18	Z18	X19	Y19	Z19	X20	Y20	Z20	X21	Y21	Z21	X22	Y22	Z22	X23	Y23	Z23	X24	Y24	Z24	X25	Y25	Z25	X26	Y26	Z26	X27	Y27	Z27	X28	Y28	Z28	X29	Y29	Z29	X30	Y30	Z30	X31	Y31	Z31	X32	Y32	Z32	X33	Y33	Z33	X34	Y34	Z34	X35	Y35	Z35	X36	Y36	Z36	X37	Y37	Z37	X38	Y38	Z38	X39	Y39	Z39	X40	Y40	Z40	X41	Y41	Z41	X42	Y42	Z42	X43	Y43	Z43	X44	Y44	Z44	X45	Y45	Z45	X46	Y46	Z46	X47	Y47	Z47	X48	Y48	Z48	X49	Y49	Z49	X50	Y50	Z50	X51	Y51	Z51	X52	Y52	Z52	X53	Y53	Z53	
303	3.02	3640.2437	107.57566	-146.73792	3639.74	111.49571	-183.99014	3710.8613	1426.6755	-99.716858	3701.728	1397.204	-92.398682	3705.0081	1399.6926	-130.68593	3761.5137	1040.8005	18.798977	3761.1028	1067.0464	-227.82912																3910.5925	525.59564	46.131275	3792.3542	572.93213	7.4840121	3761.7466	659.97046	17.870375	3749.3545	802.54535	23.852533	3882.4292	669.31488	63.384289	3851.5017	813.21533	81.985947	3865.4839	770.48096	88.036667	3871.8718	742.41693	86.985458	3833.9373	746.53925	92.36145	3950.6599	465.88037	58.419807	3916.4102	413.18991	10.645445	4125.251	267.03442	2.8279853	4240.6201	234.8844	29.818237	3955.2676	370.18512	-12.399668	3974.5571	351.68152	-2.1076474	3979.8813	355.4028	-40.364418	4289.7959	295.4299	-11.282789	4234.2402	82.933487	-10.423503	4199.8052	152.07629	4.4168229	4213.0396	123.8718	10.341358	4202.4678	122.81171	-26.407284	3716.0571	536.25012	-239.59085	3656.9873	639.97626	-182.41917	3661.4963	720.28351	-183.52417	3691.4705	843.82831	-193.29904	3752.1504	691.521	-268.99402	3787.6523	835.05255	-297.21725	3781.0088	781.87579	-303.64551	3764.3018	758.66809	-298.20187	3801.2988	748.40063	-295.33817	3719.269	468.10089	-241.31972	3667.4351	463.09457	-190.62788	3741.0933	200.20972	-218.23083	3699.0037	214.67332	-168.84506	3750.189	99.949409	-200.43248	3686.4358	398.60199	-134.16452	3694.3872	371.20453	-126.96558	3667.8503	367.4386	-152.40578	3825.0842	64.147263	-166.69478	3606.5845	75.32225	-157.11899	3665.0007	119.96825	-155.70383
304	3.03	3640.2273	107.44178	-146.59305	3639.6948	111.41174	-183.83449	3699.4058	1428.2814	-100.53352	3690.3079	1399.2548	-92.623871	3693.2639	1402.0106	-130.9339	3750.7136	1042.4336	18.432713	3749.5825	1068.347	-228.82585																3885.3049	524.48877	46.043129	3769.1013	574.85638	7.754972	3741.9941	662.96027	18.093842	3734.0571	805.68176	23.731089	3861.8088	668.77814	62.652954	3835.936	813.34052	82.198936	3848.7905	770.91309	88.028702	3853.6748	742.15387	86.401581	3816.5195	747.12994	92.586395	3923.7695	465.30011	58.839081	3887.8145	413.39841	11.218197	4101.4067	271.10605	2.6546338	4216.8682	240.03676	29.439219	3929.1328	370.26617	-12.46682	3948.8416	352.59464	-2.4196358	3954.0503	356.44174	-40.563885	4268.3491	299.94815	-9.4656763	4207.9175	89.591278	-12.946148	4175.0161	158.9738	1.7953012	4187.9849	130.01117	7.42346	4178.0093	129.81509	-29.41048	3711.8333	535.64801	-239.87405	3650.8591	639.03204	-182.53436	3653.9839	718.92322	-184.15147	3681.8931	843.39435	-194.07622	3745.9873	691.74237	-268.76382	3778.0833	836.22186	-297.90686	3772.7197	782.23962	-303.65674	3756.9651	759.03339	-297.84714	3793.6033	749.80817	-295.63525	3716.1353	467.93503	-241.64537	3663.8823	462.30679	-191.04861	3740.1748	200.23157	-218.05785	3697.834	214.01442	-169.07458	3750.114	99.957207	-200.36325	3683.2002	398.38199	-134.34877	3691.488	370.5654	-127.40263	3665.0862	366.77197	-152.8714	3825.0571	64.237785	-166.61589	3606.5356	75.021935	-157.12447	3664.9771	119.85461	-155.65547
305	3.04	3640.1863	107.28564	-146.50124	3639.6162	111.3	-183.76221	3687.8621	1430.2419	-100.80089	3678.9922	1400.7855	-93.226982	3681.6353	1403.606	-131.54031	3739.9739	1044.5217	18.131357	3736.7605	1070.1754	-228.77158																3860.1006	524.04175	46.194706	3745.5488	577.82898	7.8197618	3722.3452	666.32251	18.052242	3718.7112	809.25238	23.732065	3842.272	668.58167	62.460442	3821.4231	814.7005	81.761253	3831.6438	771.88373	88.208374	3837.1011	742.84601	86.958153	3799.6448	748.72034	92.279564	3896.616	465.54263	59.004848	3858.7041	414.89999	10.454473	4075.6311	275.06824	1.5189955	4191.6113	244.2476	28.563913	3902.2278	371.76257	-13.216955	3922.1216	354.03714	-3.4358895	3926.9424	358.2287	-41.404095	4245.7144	303.67169	-8.514658	4178.8604	95.193909	-15.756972	4149.2983	164.34178	-1.5932498	4160.7813	135.34094	4.6960759	4151.2983	136.14677	-32.456249	3707.8147	535.82397	-239.81451	3644.9434	637.92566	-182.06618	3646.7932	718.28131	-184.13698	3672.6589	843.01227	-194.34473	3739.135	691.74847	-268.06708	3768.7598	836.87	-298.17053	3764.5115	783.39575	-303.46133	3749.1455	759.93372	-298.18811	3785.9509	751.19373	-295.60815	3713.0889	467.75815	-241.79224	3660.7173	461.61078	-191.13776	3739.2634	200.17091	-218.00648	3696.6116	213.63989	-169.10127	3750.075	100.13992	-200.51495	3680.3264	397.54834	-134.68115	3688.9919	370.00861	-127.46808	3662.5847	366.14072	-153.08917	3825.0176	64.53775	-166.51137	3606.4065	74.843483	-157.10411	3664.8442	119.83244	-155.51706
306	3.05	3639.9792	107.09488	-146.13863	3639.4629	111.14188	-183.71974	3676.439	1431.8951	-101.39497	3667.4878	1402.7781	-93.442047	3669.7056	1405.3729	-131.67476	3729.2034	1046.6833	17.958145	3726.3418	1071.0569	-229.77817																3834.4734	524.40985	46.072338	3722.5151	581.23468	7.5307398	3702.4612	670.20294	17.894985	3703.9736	812.77301	23.591471	3822.3948	669.30719	61.933392	3806.9463	815.94501	81.539711	3814.5237	772.71045	88.34359	3819.9763	743.46283	86.709641	3782.8906	750.4826	92.349487	3869.2031	466.2059	59.12574	3831.0393	417.30356	9.484417	4048.2859	278.37015	0.04042504	4165.416	247.50685	27.537683	3874.7256	373.50275	-14.288672	3894.7017	355.81635	-4.4301219	3899.0823	360.48102	-42.012569	4221.7847	305.93286	-8.9076929	4149.8335	98.544075	-17.055044	4121.2866	168.83635	-3.2527864	4132.1455	140.36725	3.0012703	4122.9893	141.33125	-34.587372	3703.7617	535.87823	-239.82324	3639.2959	637.00232	-181.79823	3639.7969	717.60992	-184.03218	3663.6873	842.6228	-194.45035	3733.8018	691.96954	-267.20724	3760.5547	838.01367	-297.26254	3756.2803	784.50012	-303.55219	3741.1663	760.5033	-299.04956	3778.377	752.64545	-295.50098	3709.8098	467.38831	-241.49417	3658.5576	460.88116	-191.4007	3738.2351	200.0688	-218.02045	3695.3936	213.42264	-169.01254	3749.7012	100.04972	-200.1234	3677.7759	397.30557	-134.66753	3686.6338	369.63132	-127.29244	3660.3232	365.30502	-153.20607	3824.7808	64.288673	-166.09427	3606.2307	74.624123	-157.04597	3664.7161	119.67947	-155.51003
307	3.06	3639.8101	106.32576	-145.98427	3639.2776	111.0067	-183.5544	3664.9927	1434.1281	-101.2934	3656.2512	1404.36	-93.698387	3658.3403	1407.1302	-132.17322	3718.4688	1048.9442	17.562349	3714.8586	1072.524	-230.01793																3809.0161	525.58813	45.889324	3699.5776	585.53638	7.5607657	3682.5347	675.0177	17.679377	3688.7959	817.23193	23.69305	3802.718	670.46692	61.544514	3792.3716	817.56018	81.044594	3797.4707	774.53784	88.083206	3802.9336	744.67932	86.23024	3766.1101	752.60413	92.280556	3841.7322	467.26282	59.115086	3804.4883	417.44974	9.2263851	4020.9141	279.89352	-1.4511788	4138.8989	249.42833	26.230906	3847.3154	375.56277	-15.666637	3867.291	357.9256	-5.8798094	3871.5972	362.48373	-43.82761	4196.9033	306.47092	-10.573725	4119.1294	101.18616	-17.744699	4092.6824	172.73534	-3.5002322	4102.5591	142.95169	2.3118813	4093.1021	144.30536	-34.366299	3699.7529	536.02588	-239.71951	3633.9678	636.10834	-181.35016	3633.2388	716.31451	-183.58707	3654.8752	842.05646	-194.6348	3726.6865	692.91827	-267.60754	3751.3752	839.45776	-297.29727	3748.6594	785.33459	-303.16751	3733.5471	761.13617	-297.65604	3770.6028	753.74066	-295.49533	3706.6919	467.18689	-241.40089	3655.8276	459.95288	-191.05646	3737.1877	200.23581	-217.8224	3694.3909	213.2231	-168.83585	3749.491	100.13563	-200.04488	3675.3718	397.0827	-134.39993	3684.5745	368.95459	-127.13634	3658.2439	364.97757	-153.09109	3824.5942	64.323952	-166.00468	3606.0835	74.395218	-157.04871	3664.512	119.59235	-155.3667
308	3.07	3639.5544	106.17786	-146.06825	3639.0137	110.75495	-183.34604	3652.0859	1435.3978	-101.96705	3644.9536	1406.0476	-93.957115	3646.7424	1408.2449	-132.06433	3707.917	1051.6526	17.098175	3704.4282	1073.6211	-230.50079																3783.7544	527.65326	45.770813	3676.6409	590.05139	7.408278	3663.2251	679.88806	17.380514	3673.6746	822.14844	23.730976	3782.8218	672.09491	60.870529	3777.4097	820.13678	80.267227	3782.5962	775.53314	87.715622	3785.9749	746.20575	85.609055	3749.1997	755.09521	92.062477	3815.1033	468.85892	58.934319	3775.99	420.49295	8.91397	3992.7798	282.11734	-3.1454737	4112.2319	250.42474	24.680025	3819.8477	378.3078	-17.368443	3839.7944	360.03046	-7.4685659	3844.3687	365.66434	-45.319523	4171.4521	305.30435	-13.273231	4086.856	102.69247	-17.261438	4063.0227	175.52019	-3.3346789	4071.927	146.21083	2.8319504	4061.9153	146.98639	-34.209171	3695.9915	536.2135	-239.72444	3628.8855	634.88733	-180.82161	3626.7607	715.50464	-182.90378	3646.1025	841.59186	-194.18596	3719.5015	693.11908	-266.68909	3742.0562	839.80414	-297.03003	3740.6001	786.21985	-302.91321	3725.1211	762.00354	-298.29971				3703.8264	467.21744	-241.21426	3653.2883	459.29489	-190.5016	3736.2	200.39365	-217.75841	3693.6726	212.9901	-168.57274	3749.7314	100.2884	-200.41811	3673.0977	396.51031	-134.10179	3682.498	368.83252	-126.86127	3656.4509	364.45343	-152.95277	3824.5281	64.696785	-166.06265	3605.8335	74.087891	-156.89923	3664.2119	119.33521	-155.25563
309	3.08	3639.1702	105.73164	-145.93007	3638.7603	110.54206	-183.23692	3639.3142	1437.6602	-101.5907	3633.5073	1407.2443	-94.290146	3634.5378	1410.1715	-132.05247	3697.2668	1054.1123	16.601089	3692.1433	1075.4517	-230.6532																3758.5054	530.04504	45.687912	3653.728	595.64014	6.9752326	3643.5215	685.62878	17.014074	3658.7991	827.11847	23.63121	3762.6021	674.14362	60.221966	3763.1484	822.00494	80.231529	3766.5261	777.5943	86.39431	3767.9053	747.9505	84.356743	3732.1858	758.02344	91.980072	3787.0959	469.92053	58.687473	3748.3369	422.69324	8.1762342	3963.8684	283.06516	-4.4339995	4084.8855	250.23949	23.219603	3792.4702	381.2897	-18.983175	3812.2256	362.94205	-9.4639492	3817.1731	368.85724	-46.951763	4145.5161	302.66858	-16.43829	4051.949	103.97336	-16.173479	4032.3538	177.73831	-2.4859526	4039.7983	148.12759	3.7438216	4029.0852	148.92093	-33.208096	3692.356	536.22412	-239.2877	3623.9941	633.86194	-180.12108	3620.4058	714.39703	-182.10461	3637.3843	841.03784	-194.25194	3712.812	693.70789	-266.35999	3733.4148	840.96637	-297.27261	3732.7463	786.7959	-302.89825	3718.0894	762.27875	-297.36624				3701.123	467.21219	-240.75562	3650.6201	459.20505	-190.27206	3735.157	200.69054	-217.47736	3691.397	213.18196	-168.04512	3749.0662	100.52487	-199.82706	3671.1006	396.6127	-133.81917	3681.614	368.61969	-127.42384	3653.7393	364.70193	-152.01735	3824.8279	65.670685	-166.48285	3605.5979	73.850014	-156.8549	3663.9968	119.17375	-155.19597
310	3.09	3639.0068	105.6706	-145.85736	3638.5798	110.40318	-183.06706	3626.739	1439.9104	-101.4526	3622.5022	1409.1825	-94.205574	3623.2764	1411.5702	-131.51418	3686.6804	1056.9807	16.087727	3681.5139	1076.5276	-231.60419																3733.4858	532.86176	45.361134	3631.2207	601.22754	6.5995765	3624.2566	691.52869	16.915028	3644.1169	832.39923	23.435181	3742.751	676.82886	59.768383	3748.4321	824.45929	79.981186	3750.3555	780.13239	86.151306	3750.7437	750.21307	83.975304	3714.5588	761.41907	91.716377	3760.1411	471.40378	58.474613	3721.0925	425.87827	7.6446137	3935.2688	283.55338	-5.7647138	4056.7808	248.96831	21.602654	3764.762	384.73257	-20.384811	3785.9263	364.97186	-11.09783	3790.5659	372.10672	-48.274029	4119.0537	298.3902	-19.749996	4016.1543	105.00558	-15.649674	4000.7034	179.0116	-1.9999679	4006.7805	149.4292	4.3081436	3993.428	151.45456	-31.244898	3689.0461	535.86517	-238.79932	3619.2778	632.69019	-179.29744	3614.2646	712.97919	-181.69736	3628.8386	840.05865	-193.86847	3705.8479	693.19501	-265.23746	3724.4932	841.56415	-296.94266	3724.3665	787.26617	-302.74536	3709.9961	762.6507	-298.03748				3698.5952	467.26074	-240.3504	3648.2571	458.81671	-190.03369	3734.5137	201.17285	-216.98157	3691.5955	212.755	-167.84247	3748.7791	100.76115	-199.53481	3670.4067	396.0256	-133.80923	3678.6963	368.84683	-126.63314	3651.8086	364.45679	-151.99107	3824.8037	66.189636	-166.38547	3605.4417	73.59742	-156.7513	3663.7922	119.04234	-155.01382
